<svg width="17" height="17" viewBox="0 0 17 17" fill="none" xmlns="http://www.w3.org/2000/svg">
<path d="M14.9658 8.43506C14.9658 11.7488 12.2795 14.4351 8.96582 14.4351C8.16772 14.4351 7.40602 14.2792 6.70948 13.9964C6.57617 13.9422 6.50951 13.9151 6.45563 13.9031C6.40293 13.8912 6.36392 13.8869 6.30991 13.8869C6.25469 13.8869 6.19454 13.8969 6.07425 13.917L3.70233 14.3123C3.45394 14.3537 3.32975 14.3744 3.23994 14.3359C3.16134 14.3022 3.09871 14.2395 3.06499 14.1609C3.02648 14.0711 3.04717 13.9469 3.08857 13.6986L3.48389 11.3266C3.50394 11.2063 3.51397 11.1462 3.51396 11.091C3.51395 11.037 3.50963 10.998 3.49782 10.9452C3.48574 10.8914 3.45867 10.8247 3.40453 10.6914C3.12164 9.99486 2.96582 9.23315 2.96582 8.43506C2.96582 5.12135 5.65211 2.43506 8.96582 2.43506C12.2795 2.43506 14.9658 5.12135 14.9658 8.43506Z" stroke="#939494" stroke-linecap="round" stroke-linejoin="round"/>
</svg>
